<?xml version="1.0" encoding="UTF-8"?>
<svg id="Layer_1" data-name="Layer 1" xmlns="http://www.w3.org/2000/svg" viewBox="0 0 225.42 182.47">
  <path d="m90.9,56.32v-2.41c0-1.08,1.12-1.95,2.5-1.95h10.89c1.38,0,2.5.87,2.5,1.95v2.41c0,1.08-1.12,1.95-2.5,1.95h-10.89c-1.38,0-2.5-.87-2.5-1.95Z"/>
  <path d="m129.91,148.34H37.27v-9.69h92.64c1.85,0,3.92-2.54,3.92-6.19v-62.18c0-3.65-2.06-6.19-3.92-6.19h-3.53c-5.52,0-10.45-3.82-12.56-9.74l-2.89-8.12c-.7-1.97-2.08-3.3-3.43-3.3h-52.02c-1.3,0-2.66,1.26-3.37,3.15l-3.28,8.62c-2.17,5.71-7.05,9.39-12.43,9.39v-9.69c1.3,0,2.66-1.26,3.37-3.15l3.28-8.62c2.17-5.71,7.05-9.39,12.43-9.39h52.02c5.52,0,10.45,3.82,12.56,9.74l2.89,8.12c.7,1.97,2.08,3.3,3.43,3.3h3.53c7.5,0,13.6,7.12,13.6,15.88v62.18c0,8.76-6.1,15.88-13.6,15.88Z"/>
  <polygon points="30.38 157.28 30.38 44.69 16.09 44.69 16.09 157.28 0 157.28 23.3 182.47 46.47 157.28 30.38 157.28"/>
  <polygon points="139.24 30.25 151.37 13.79 142.22 34.07 225.42 20.79 143.51 38.6 147.79 48.78 136.16 44.14 129.23 48.13 131.05 40.76 125.23 35.68 132.31 34.24 121.3 0 139.24 30.25"/>
  <path d="m81.06,124.25c-14.94,0-27.1-12.15-27.1-27.1s12.16-27.1,27.1-27.1,27.1,12.16,27.1,27.1-12.16,27.1-27.1,27.1Zm0-45.19c-9.98,0-18.1,8.12-18.1,18.1s8.12,18.1,18.1,18.1,18.1-8.12,18.1-18.1-8.12-18.1-18.1-18.1Z"/>
</svg>