<?xml version="1.0" encoding="UTF-8"?>
<svg id="Layer_1" data-name="Layer 1" xmlns="http://www.w3.org/2000/svg" viewBox="0 0 551.38 436.78">
  <path d="m215.83,346.16c-45.41,0-82.36-36.95-82.36-82.36s36.95-82.36,82.36-82.36,82.36,36.94,82.36,82.36-36.95,82.36-82.36,82.36Zm0-139.71c-31.63,0-57.36,25.73-57.36,57.36s25.73,57.36,57.36,57.36,57.36-25.73,57.36-57.36-25.73-57.36-57.36-57.36Z"/>
  <path d="m346.01,133.13l-22.39,264.73c-.7,8.33-10.07,14.82-21.38,14.82H121.84c-11.38,0-20.77-6.56-21.39-14.94l-18.71-252.8-30.1,6.18,22.51,265.13c.96,11.54,13.92,20.53,29.59,20.53h216.05c15.57,0,28.48-8.88,29.57-20.34l27.39-283.31h-30.75Z"/>
  <path d="m102.32,160.1v-9.72c0-3.54,3.73-6.41,8.33-6.41h40.92c4.6,0,8.33,2.87,8.33,6.41v9.72c0,3.54-3.73,6.41-8.33,6.41h-40.92c-4.6,0-8.33-2.87-8.33-6.41Z"/>
  <g>
    <polygon points="331.16 54.57 364.97 46.06 354.21 16.3 347.68 17.94 334.31 47.58 331.16 54.57"/>
    <polygon points="271.61 69.55 254.87 41.3 252.36 41.93 247.85 29.46 241.78 19.23 236.96 20.45 254.15 73.95 271.61 69.55"/>
    <polygon points="284.09 66.41 291.52 64.54 313.14 35.2 320.89 24.69 267.34 38.16 284.09 66.41"/>
    <polygon points="224.97 23.46 93.44 56.57 101.85 79.82 0 105.46 10.76 135.21 242.17 76.97 224.97 23.46"/>
    <polygon points="315.9 58.41 323.07 42.51 310.33 59.81 315.9 58.41"/>
  </g>
  <polygon points="276.2 136.09 312.04 150.39 298.85 118.99 551.38 64.08 294.88 105.03 323.07 42.51 285.67 93.27 230.38 0 264.32 105.56 242.5 109.99 260.45 125.66 254.84 148.38 276.2 136.09"/>
</svg>