<?xml version="1.0" encoding="UTF-8"?>
<svg id="Layer_1" data-name="Layer 1" xmlns="http://www.w3.org/2000/svg" viewBox="0 0 853.3 253.37">
  <g>
    <path d="m847.85,252.99l-21.87.12c-3.02.02-5.47-2.54-5.48-5.71l-.06-22.96c0-3.17,2.43-5.75,5.45-5.77l21.87-.12c3.02-.02,5.47,2.54,5.48,5.71l.06,22.96c0,3.17-2.43,5.75-5.45,5.77Z"/>
    <path d="m847.29,203.32l-21.87.12c-3.02.02-5.47-2.54-5.48-5.71l-.35-128.7c0-3.17,2.43-5.75,5.45-5.77l21.87-.12c3.02-.02,5.47,2.54,5.48,5.71l.35,128.7c0,3.17-2.43,5.75-5.45,5.77Z"/>
  </g>
  <g>
    <path d="m0,245.97V55.34c0-4.07,3.51-7.37,7.85-7.37h39.61c17.99,0,29.71,1.03,35.17,3.08,8.39,3.08,15.42,9.78,21.08,20.1,5.66,10.32,8.49,23.65,8.49,39.99,0,12.61-1.63,23.21-4.9,31.8-3.26,8.59-7.41,15.34-12.44,20.24s-10.14,8.15-15.34,9.74c-7.06,1.96-17.29,2.94-30.68,2.94h-11.43c-4.34,0-7.85,3.3-7.85,7.37v62.73c0,4.07-3.51,7.37-7.85,7.37H7.85c-4.34,0-7.85-3.3-7.85-7.37ZM29.58,90.08v43.54c0,4.07,3.51,7.37,7.85,7.37h8.34c11.66,0,19.45-1.07,23.38-3.22,3.93-2.15,7.01-5.51,9.24-10.09,2.23-4.58,3.35-9.9,3.35-15.97,0-7.47-1.56-13.63-4.7-18.49-3.13-4.86-7.09-7.89-11.89-9.11-3.53-.93-10.63-1.4-21.28-1.4h-6.44c-4.34,0-7.85,3.3-7.85,7.37Z"/>
    <path d="m134.36,245.93V58.07c0-4.05,3.5-7.34,7.82-7.34h18.93c4.32,0,7.82,3.28,7.82,7.34v187.86c0,4.05-3.5,7.34-7.82,7.34h-18.93c-4.32,0-7.82-3.28-7.82-7.34Z"/>
    <g>
      <path d="m320.72,154.63l16.89.16c3.63.03,6.48,3.03,6.13,6.47-1.73,16.86-12.33,28.64-21.24,35.09-10.01,7.25-22.7,10.87-38.08,10.87-19.03,0-34.67-6.21-46.93-18.62-12.25-12.41-18.38-29.38-18.38-50.91,0-22.77,6.16-40.46,18.48-53.06,12.32-12.6,28.51-18.9,48.59-18.9,17.53,0,31.77,4.95,42.72,14.84,5.36,4.81,10.6,14.37,12.29,24.94.58,3.63-2.31,6.91-6.16,6.89l-15.48-.08c-2.68-.01-4.97-1.69-5.87-4.1-1.95-5.2-5.07-9.44-9.37-12.72-5.38-4.11-11.91-6.16-19.6-6.16-10.62,0-19.24,3.64-25.86,10.92-6.61,7.28-9.92,19.07-9.92,35.37,0,17.3,3.26,29.62,9.78,36.96,6.52,7.34,14.99,11.01,25.42,11.01,7.69,0,14.31-2.33,19.85-7,4.71-3.96,8.28-9.86,10.73-17.68.8-2.55,3.23-4.32,6.02-4.3Z"/>
      <path d="m284.42,211.58c-20.15,0-36.98-6.7-50.03-19.91-13.03-13.2-19.63-31.35-19.63-53.97,0-23.84,6.63-42.72,19.72-56.1,13.11-13.41,30.51-20.21,51.7-20.21,18.56,0,33.92,5.37,45.64,15.96,6.58,5.9,11.95,16.7,13.67,27.49.47,2.96-.38,5.96-2.34,8.25-2.02,2.35-5.07,3.72-8.13,3.68l-15.48-.08c-4.46-.03-8.36-2.74-9.92-6.93-1.67-4.46-4.26-7.99-7.94-10.79-4.64-3.54-10.19-5.27-16.96-5.27-9.43,0-16.83,3.11-22.64,9.49-5.83,6.42-8.79,17.34-8.79,32.45,0,16.12,2.92,27.58,8.68,34.07,5.7,6.43,12.95,9.55,22.17,9.55,6.69,0,12.27-1.95,17.04-5.97,4.04-3.41,7.2-8.67,9.38-15.65,1.38-4.41,5.43-7.35,10.11-7.35h.1l16.89.16c3.02.03,5.9,1.32,7.88,3.54,1.9,2.12,2.82,4.94,2.53,7.73-2.15,20.96-16.81,33.68-23.02,38.17-10.72,7.76-24.39,11.7-40.63,11.7Zm1.76-141.48c-19.03,0-33.91,5.75-45.48,17.59-11.44,11.7-17.24,28.53-17.24,50.01,0,20.24,5.76,36.34,17.13,47.85,11.51,11.66,25.85,17.33,43.83,17.33,14.37,0,26.33-3.38,35.53-10.05,5.26-3.81,17.67-14.55,19.46-32.01.05-.47-.17-.82-.36-1.04-.36-.4-.9-.64-1.48-.64l-16.89-.16h-.02c-.83,0-1.58.51-1.81,1.25-2.69,8.59-6.75,15.22-12.08,19.71-6.32,5.32-13.94,8.02-22.65,8.02-11.68,0-21.33-4.2-28.67-12.48-7.32-8.24-10.87-21.27-10.87-39.85,0-17.34,3.72-30.22,11.06-38.3,7.44-8.19,17.23-12.34,29.08-12.34,8.63,0,16.12,2.37,22.24,7.05,4.94,3.77,8.58,8.7,10.8,14.66.29.77,1,1.27,1.82,1.27l15.48.08h.01c.8,0,1.27-.4,1.47-.64.21-.25.44-.66.35-1.22-1.62-10.17-6.64-18.57-10.9-22.39-10.08-9.11-23.48-13.73-39.82-13.73Z"/>
    </g>
    <path d="m449.94,157.59v-15.67c0-5.7,3.23-10.33,7.22-10.33h35.45c3.99,0,7.22,4.62,7.22,10.33v15.67c0,5.7-3.23,10.33-7.22,10.33h-35.45c-3.99,0-7.22-4.62-7.22-10.33Z"/>
    <path d="m305.62,44.85v-5.25c0-2.34,2.43-4.24,5.43-4.24h23.68c3,0,5.43,1.9,5.43,4.24v5.25c0,2.34-2.43,4.24-5.43,4.24h-23.68c-3,0-5.43-1.9-5.43-4.24Z"/>
    <path d="m688.07,242.92V74.05c0-5.7,3.41-10.33,7.62-10.33h37.71c17.18,0,28.38.95,33.59,2.84,8.02,2.84,14.73,9.03,20.14,18.55,5.41,9.52,8.11,21.83,8.11,36.91,0,11.64-1.56,21.42-4.68,29.35-3.12,7.93-7.08,14.16-11.88,18.68-4.8,4.52-9.69,7.52-14.65,8.98-6.74,1.81-16.51,2.71-29.3,2.71h-10.8c-4.21,0-7.62,4.62-7.62,10.33v50.84c0,5.7-3.41,10.33-7.62,10.33h-13c-4.21,0-7.62-4.62-7.62-10.33Zm28.25-136.81v33.13c0,5.7,3.41,10.33,7.62,10.33h7.84c11.13,0,18.58-.99,22.33-2.97,3.75-1.98,6.7-5.08,8.83-9.31,2.13-4.22,3.2-9.13,3.2-14.74,0-6.89-1.49-12.58-4.49-17.06-2.99-4.48-6.78-7.28-11.36-8.4-3.37-.86-10.15-1.29-20.33-1.29h-6.02c-4.21,0-7.62,4.62-7.62,10.33Z"/>
    <path d="m390.48,253.37h-201.55v-21.08h201.55c4.03,0,8.52-5.53,8.52-13.47V83.54c0-7.94-4.49-13.47-8.52-13.47h-7.68c-12.01,0-22.74-8.32-27.32-21.19l-6.29-17.67c-1.53-4.29-4.53-7.18-7.46-7.18h-113.17c-2.83,0-5.78,2.75-7.34,6.85l-7.13,18.75c-4.72,12.42-15.33,20.44-27.04,20.44v-21.08c2.83,0,5.78-2.75,7.34-6.85l7.13-18.75c4.72-12.42,15.33-20.44,27.04-20.44h113.17c12.01,0,22.74,8.32,27.32,21.19l6.29,17.67c1.53,4.29,4.53,7.18,7.46,7.18h7.68c16.32,0,29.6,15.5,29.6,34.55v135.28c0,19.05-13.28,34.55-29.6,34.55Z"/>
    <path d="m536.68,38.85l-37.04,14.92c-2.16.87-3.14,3.5-2.18,5.88l6.59,16.35c.75,1.86,2.45,3.01,4.19,3.01.49,0,.98-.09,1.45-.28l132.76-53.49c2.16-.87,3.14-3.5,2.18-5.88l-6.59-16.35c-.75-1.86-2.45-3.01-4.19-3.01-.49,0-.98.09-1.45.28l-35.47,14.29c-.23.09-.47.13-.72.13-2.12,0-4.89-3.07-5.74-5.2-.75-1.86-2.45-3.01-4.19-3.01-.49,0-.98.09-1.45.28l-44.6,17.97c-2.16.87-3.14,3.5-2.18,5.88h0c.96,2.38.8,7.35-1.36,8.22Z"/>
  </g>
  <path d="m641.61,53.93h-14.32c-6.43,0-11.66,6.1-11.66,13.59v94.52c0,14.78-.45,25.46-1.33,31.74-.81,5.79-3.16,10.53-7.16,14.49-3.83,3.79-9.78,5.71-17.68,5.71s-13.9-2.02-18.32-6.16c-4.46-4.18-7.33-9.85-8.52-16.82-.74-4.63-1.12-15.11-1.12-31.16v-89.11l-37.65,15.17v72.39c0,21.31,1.05,37.69,3.11,48.7,1.48,7.72,4.58,15.18,9.21,22.19,4.69,7.09,11.14,12.93,19.18,17.35,8.17,4.49,19.64,6.68,35.06,6.68,12.65,0,23.12-2.05,31.12-6.11,8.02-4.06,14.52-9.61,19.33-16.49,4.77-6.83,8.08-15.27,9.84-25.08,1.73-9.68,2.58-25.64,2.58-48.8v-89.22c0-7.49-5.23-13.59-11.66-13.59Z"/>
</svg>